<svg xmlns="http://www.w3.org/2000/svg" version="1.0" width="1500.000000pt" height="500.000000pt" viewBox="0 0 1500.000000 500.000000" preserveAspectRatio="xMidYMid meet">

<g transform="translate(0.000000,500.000000) scale(0.100000,-0.100000)" fill="#e0e0e0" stroke="none">
<path d="M1500 2500 l0 -1370 1370 0 1370 0 0 1370 0 1370 -1370 0 -1370 0 0 -1370z m1070 5 l0 -675 -165 0 -165 0 0 675 0 675 165 0 165 0 0 -675z m930 505 l0 -170 -170 0 -170 0 0 -335 0 -335 170 0 170 0 0 -170 0 -170 -83 0 c-46 0 -199 -3 -340 -7 l-257 -6 0 681 0 682 340 0 340 0 0 -170z" fill="#e0e0e0"/>
<path d="M5950 2675 l0 -515 -170 0 -170 0 0 510 0 510 -175 0 -175 0 0 -510 0 -510 -170 0 -170 0 0 510 0 510 -170 0 -170 0 0 -685 0 -685 855 0 855 0 0 690 0 690 -170 0 -170 0 0 -515z" fill="#e0e0e0"/>
<path d="M6632 2998 l3 -173 513 -3 512 -2 0 175 0 175 -515 0 -515 0 2 -172z" fill="#e0e0e0"/>
<path d="M8000 2490 l0 -680 520 0 520 0 0 680 0 680 -520 0 -520 0 0 -680z m690 250 l0 -80 -170 0 -170 0 0 80 0 80 170 0 170 0 0 -80z m0 -500 l0 -80 -170 0 -170 0 0 80 0 80 170 0 170 0 0 -80z" fill="#e0e0e0"/>
<path d="M10060 2490 l0 -680 515 0 515 0 0 680 0 680 -170 0 -170 0 0 -505 0 -505 -175 0 -175 0 0 505 0 505 -170 0 -170 0 0 -680z" fill="#e0e0e0"/>
<path d="M11430 2995 l0 -175 175 0 175 0 0 -505 0 -505 175 0 175 0 0 680 0 680 -350 0 -350 0 0 -175z" fill="#e0e0e0"/>
<path d="M12470 2490 l0 -680 515 0 515 0 0 680 0 680 -515 0 -515 0 0 -680z m690 0 l0 -330 -175 0 -175 0 0 330 0 330 175 0 175 0 0 -330z" fill="#e0e0e0"/>
<path d="M6630 2490 l0 -170 515 0 515 0 0 170 0 170 -515 0 -515 0 0 -170z" fill="#e0e0e0"/>
<path d="M6637 2153 c-4 -3 -7 -82 -7 -175 l0 -168 515 0 515 0 0 175 0 175 -508 0 c-280 0 -512 -3 -515 -7z" fill="#e0e0e0"/>
<path d="M9380 1985 l0 -175 170 0 170 0 0 175 0 175 -170 0 -170 0 0 -175z" fill="#e0e0e0"/>
</g>
</svg>